/* XPM */
static char *f880d51eece24637ada91fbfb0081fc4[] = {
/* columns rows colors chars-per-pixel */
"64 64 256 2 ",
"   c black",
".  c #0000A8",
"X  c #00A800",
"o  c #00A8A8",
"O  c #A80000",
"+  c #A800A8",
"@  c #A85400",
"#  c gray66",
"$  c gray33",
"%  c #5454FC",
"&  c #54FC54",
"*  c #54FCFC",
"=  c #FC5454",
"-  c #FC54FC",
";  c #FCFC54",
":  c gray99",
">  c #ECECEC",
",  c gainsboro",
"<  c #D0D0D0",
"1  c #C0C0C0",
"2  c #B4B4B4",
"3  c gray66",
"4  c #989898",
"5  c gray55",
"6  c #7C7C7C",
"7  c gray44",
"8  c #646464",
"9  c gray33",
"0  c #484848",
"q  c gray22",
"w  c #2C2C2C",
"e  c #202020",
"r  c #FC0000",
"t  c #EC0000",
"y  c #E00000",
"u  c #D40000",
"i  c #C80000",
"p  c #BC0000",
"a  c #B00000",
"s  c #A40000",
"d  c #980000",
"f  c #880000",
"g  c #7C0000",
"h  c #700000",
"j  c #640000",
"k  c #580000",
"l  c #4C0000",
"z  c #400000",
"x  c #FCD8D8",
"c  c #FCB8B8",
"v  c #FC9C9C",
"b  c #FC7C7C",
"n  c #FC5C5C",
"m  c #FC4040",
"M  c #FC2020",
"N  c #FC0000",
"B  c #FCA85C",
"V  c #FC9840",
"C  c #FC8820",
"Z  c #FC7800",
"A  c #E46C00",
"S  c #CC6000",
"D  c #B45400",
"F  c #9C4C00",
"G  c #FCFCD8",
"H  c #FCFCB8",
"J  c #FCFC9C",
"K  c #FCFC7C",
"L  c #FCF85C",
"P  c #FCF440",
"I  c #FCF420",
"U  c #FCF400",
"Y  c #E4D800",
"T  c #CCC400",
"R  c #B4AC00",
"E  c #9C9C00",
"W  c #848400",
"Q  c #706C00",
"!  c #585400",
"~  c #404000",
"^  c #D0FC5C",
"/  c #C4FC40",
"(  c #B4FC20",
")  c #A0FC00",
"_  c #90E400",
"`  c #80CC00",
"'  c #74B400",
"]  c #609C00",
"[  c #D8FCD8",
"{  c #BCFCB8",
"}  c #9CFC9C",
"|  c #80FC7C",
" . c #60FC5C",
".. c #40FC40",
"X. c #20FC20",
"o. c #00FC00",
"O. c #00FC00",
"+. c #00EC00",
"@. c #00E000",
"#. c #00D400",
"$. c #04C800",
"%. c #04BC00",
"&. c #04B000",
"*. c #04A400",
"=. c #049800",
"-. c #048800",
";. c #047C00",
":. c #047000",
">. c #046400",
",. c #045800",
"<. c #044C00",
"1. c #044000",
"2. c #D8FCFC",
"3. c #B8FCFC",
"4. c #9CFCFC",
"5. c #7CFCF8",
"6. c #5CFCFC",
"7. c #40FCFC",
"8. c #20FCFC",
"9. c #00FCFC",
"0. c #00E4E4",
"q. c #00CCCC",
"w. c #00B4B4",
"e. c #009C9C",
"r. c #008484",
"t. c #007070",
"y. c #005858",
"u. c #004040",
"i. c #5CBCFC",
"p. c #40B0FC",
"a. c #20A8FC",
"s. c #009CFC",
"d. c #008CE4",
"f. c #007CCC",
"g. c #006CB4",
"h. c #005C9C",
"j. c #D8D8FC",
"k. c #B8BCFC",
"l. c #9C9CFC",
"z. c #7C80FC",
"x. c #5C60FC",
"c. c #4040FC",
"v. c #2024FC",
"b. c #0004FC",
"n. c #0000FC",
"m. c #0000EC",
"M. c #0000E0",
"N. c #0000D4",
"B. c #0000C8",
"V. c #0000BC",
"C. c #0000B0",
"Z. c #0000A4",
"A. c #000098",
"S. c #000088",
"D. c #00007C",
"F. c #000070",
"G. c #000064",
"H. c #000058",
"J. c #00004C",
"K. c #000040",
"L. c #282828",
"P. c #FCE034",
"I. c #FCD424",
"U. c #FCCC18",
"Y. c #FCC008",
"T. c #FCB400",
"R. c #B420FC",
"E. c #A800FC",
"W. c #9800E4",
"Q. c #8000CC",
"!. c #7400B4",
"~. c #60009C",
"^. c #500084",
"/. c #440070",
"(. c #340058",
"). c #280040",
"_. c #FCD8FC",
"`. c #FCB8FC",
"'. c #FC9CFC",
"]. c #FC7CFC",
"[. c #FC5CFC",
"{. c #FC40FC",
"}. c #FC20FC",
"|. c #FC00FC",
" X c #E000E4",
".X c #C800CC",
"XX c #B400B4",
"oX c #9C009C",
"OX c #840084",
"+X c #6C0070",
"@X c #580058",
"#X c #400040",
"$X c #FCE8DC",
"%X c #FCE0D0",
"&X c #FCD8C4",
"*X c #FCD4BC",
"=X c #FCCCB0",
"-X c #FCC4A4",
";X c #FCBC9C",
":X c #FCB890",
">X c #FCB080",
",X c #FCA470",
"<X c #FC9C60",
"1X c #F0945C",
"2X c #E88C58",
"3X c #DC8854",
"4X c #D08050",
"5X c #C87C4C",
"6X c #BC7848",
"7X c #B47044",
"8X c #A86840",
"9X c #A0643C",
"0X c #9C6038",
"qX c #905C34",
"wX c #885830",
"eX c #80502C",
"rX c #744C28",
"tX c #6C4824",
"yX c #5C4020",
"uX c #543C1C",
"iX c #483818",
"pX c #403018",
"aX c #382C14",
"sX c #28200C",
"dX c #600064",
"fX c #006464",
"gX c #006060",
"hX c #00001C",
"jX c #00002C",
"kX c #302410",
"lX c #480048",
"zX c #500050",
"xX c #000034",
"cX c gray11",
"vX c #4C4C4C",
"bX c gray36",
"nX c gray25",
"mX c gray19",
"MX c #343434",
"NX c #D8F4F4",
"BX c #B8E8E8",
"VX c #9CDCDC",
"CX c #74C8C8",
"ZX c #48C0C0",
"AX c #20B4B4",
"SX c #20B0B0",
"DX c #00A4A4",
"FX c #009898",
"GX c #008C8C",
"HX c #008484",
"JX c #007C7C",
"KX c #007878",
"LX c #007474",
"PX c #007070",
"IX c #006C6C",
"UX c #980088",
/* pixels */
"8X8X9XwXqXqX8X8X8X6X6X6X6X6XqXqXyXqXwXrXqX9X9XrXyXrXrXwX9XwXwXyXcXcXsXrX9X8X6X8X8X9XwXwXqXwXwXwXwXwXuXyXyXyXrXrXyXyXyXrXwXwXqX9X",
"9X9XwXwXqXqX8X8X8X6X4X4X6X4XqXwXrX8XqX9X9X8XqXrXrXyXrXwXwXrXyXsXcX    pXwX9X8X9X9XuXaXpXuXsXsXsXsXaXsXsXpXuXuXaXsXpXyXyXaXsXsXuX",
"wXwXqXwXwXqXqXqX6X6X6X6X6X4X9XwXwX9XqXqX9X9XwXwXqXuXyXwXwXyXsXcXcXcXpXuXyXuXuXyXyXpXuXsXaXsXsXuXwXwXyXwXrXrXrXrXrXqX6X8XyXsXcXsX",
"yXyXrXwXwXrXwXwXqXqXwXqXqX6X9X9XwXwXrXwXwXrXqX8XwXsXpXyXyXsXaXsXyXyXwX9XwXyXyXyXyXcXcXsXaXuXwXwXwXwX6X8XwXyXwX8X6X8X8XqXyXyXsXaX",
"cXcXcXsX6XuXuXuXuXpXsXyXyXyXuXyXuXuXuXyXuXuXyXwXyXaXsXsXaXuXyXuXaXaXuXuXaXpXaXsXsXpXpXyXqX9X8XwXuXuX8X9XyXyXrXrXwXrXyXaXsXsXcXcX",
"cX6XuX4X4XyX6X6X8X9XwXrXuXsXpXpXpXsXpXaXaXsXpXsXsXcXpXuXsXcXsXcXsXsXaXsXaXsXsXsX  qXqXqX9X8X4X6X9X8X6X8XwXwXwXqXqXrXrXyXsXsXcXaX",
"6XqX8X6X4X4X6X6X6X6XwXyXaXsXpXpXsXaXsXsXsXsXsXcX    cXsXcXsXsXsXaXpXaXsXaXaXsXsX  6X8X9XqX8X6X6X8X8X8X9XwXrXwXqXqXwXwXrXpXaXpXcX",
"qX8X8X6X4X4X4X4X4X6X8XyXyXaXaXsXcX    cXcXsX        cXcX  aXuXuXaXpXaXsXsXsXcXcX  4X6X8X9X8X6X8X9X6X8X9XwXrXwXwXwXwX9XrXyXuXuXaX",
"8X8X6X4X4X4X4X4X6X4X6XqXyXuXaX    sXaXpXyXrXyXcXsXsXaXsXsXpXpXuXyXpXuXuXsXaXpXsXcX4X6X9XqX8X6X8X9X6X8X8X9XqXqXqXqX9X8XqXwXqX8XrX",
"8X8X6X4X6X4X4X4X4X4X6XqXuXuXcX  uX9X6X4X6X6X8X9XwX8X6XwXsXcXsXcXsXsXsXsXcXcXsXcX  4X6X9X9X9X8X6X8X6X9XqX9X9XqXwXqX8X9XqXqXqX8XqX",
"8X6X6X8XqX8X8X6X6X6XwXuXpXpXsXcX9X4X6X8X8X8XwX>X4X4X>X4XpXsXcX  sXuXyXyXyXuXsX  cX>X8XqXqXqXqX8X6X4X9X8X9XqXqXwXwXqX9XqXyXyXrX8X",
"wXwXwXyXuXyXrXrXwXyXaXsXuXuXsXsX4X6X9X8X8XqX9X>X8X9X4X8XpXpXcXaX8X6X4X4X4X6X8XrXsX8XyXwXwXwX9X8X6X4X9X9XqXqXqXwXrXqXqXqXuXaXyXwX",
"aXsXaXaXsXsXaXpXaXaXsXsXuXrXwXpXsX6X4X4X4X4X4X>X>X8XwX6XyXuXyXsXqX6X8X6X4X4X4X4XqXyXyXyXqXqX9X8X8X4X8X9X9X9XqX9XwXwX9XqXwXyXuXrX",
"pXaXpXpXpXyXyXyXuXpXyXyXwXwXrXaXsXwX8X4X4X4X6X6X4X4X8XwXaXyX9XaX8XwXuXuXrXrXuXyXpXuXrX8X8X9X8X9X8X6X6X8X8X8XqXwXwXqXqXwXqXrXrXwX",
"aXuXuXaXsXsXsXaXyXyXuXpXaXuXsXsX  uX9X8X6X4X4X6X4X6XyX8X8XyXuXcXsXcX      cX    cXpX8X6X8X9X9X9X9XqX8X8X8XqXwXwXqX8X8X9X8XwXuXuX",
"aXcXaXsXcXsXsXpXuXuXuXuXuXaXaXsX  yX8X6X4X6X8XrXwXyXyX6X4XuX    sXpXuXuXaXsXaXpXsXuX6X8XwXqXwXwXwXqXwX9X8XwXqXqXwXqXqX9X9XwXuXaX",
"  aXsXsXcXcXsXcXaXaXaXaXpXaXpXsX  uX8X6X4X9XyXaXuXyXqXwX8XrXsX  rXrXwX9XqXrX9X8XwXyX8XwXrXyXuXuXuXuXrXwXqXqXwXwXwXwXwXqX9XrXpXcX",
"  sXuXuXpXsXsXaXaXaXaXpXyXyXyXsX  qX4X4X6X6XyXwX8X8XwXrX8XrXsXcXqXwX9X9X8X8X8X8X6XuXyXpXaXsXsXsXsXsXyXrXrXyXyXyXyXyXyXwXqXuXaX  ",
"aXpXuXsXsXsXsXcX    sXpXaXpXsXcX  qX>X4X6X4X8X>X4X6XyXyXwXrXsXsXqXrXyXwXwXrXwX9XyXaXuXuXsXpXpX  cXsXuXyXuXaXsXsXsXsXsXyXuXsXsXcX",
"pXpXpXsXsXrXuX    sXyXwXwXwXuXsX  wX6X9X8X8X6X4X6XqXyXwXrXrXuXpXyXyXuXwXyXyX9X8XaXuXrXrXuXyXpXcXcXsXsXsXsXcXcXcXsXsXcXaXpXpXsXrX",
"yXpXuXuXrXyXsXcXaXyX9X6X6X8X9XuX  qX8XwXyXwXqX8XqXyXyXyXrXyXpXrXwX9X8X8XyXwXwXyXsXyXrXuXpXsXsXcXcXsXsXsXsXcXcXsXsXcXsXcXaXpXyXyX",
"yXuXuX9XrXsXsXyXqX8X8X8XqXqXrXpX  wX8XyXyXyXyXrXuXpXyXpXyXpXsXqX9X9X8XqXrXrXyXyXyXpXuXyXyXaXcXsXpXsXaXsXsXsXsXcXcXcXsXcXaXyXyXrX",
"rXyXyXyXyXpXuXrXwXrXwXwXuXpXuXsXcXwXwXuXaXpXaXpXcXsXsXsXsXsXuXwXaXsXpXpXsXpXsXaXpXqX8X8X6X8XqX9X8X8XqXwXyXpXpXyXyXuXyXyXwXwXuXyX",
"qX8XrXyXsXaXsXuXpXuXwXwXwXrXaXsXrXrXyXwXqXwXyXyXyXsXuXuXuXwX6X8X8X9X6X4X4X4X4X4X6X8X9X6X8X8X8X6X4X6X8XyXaXpXpXaXsXpXaXcXaXuXyXrX",
"wXwXrXyXpX9X8X6X8X6X4X4X6X4XrXyXwXyX9X8XqXwXqXqXwXyXwXyXrXwX6X8X8X6X4X6X6X6X4X4X8XyXuXrXyXrX4X>X4X6X8XuXpXuXsXsXaXaXcXsXuXyX9XwX",
"rXyXsXyXrXwX8X4X4X4X9X8X6X8X8XqX8X4X4X9XuXyX9X8XyXaXaXsXuXyX6X4X8X4X4X8XqX9X6X6XwXuXsXaXaXrX6X>X4X4XrXaXyXwXyXyXrXuXsXsXuXwXwXqX",
"rXpXyXyXwXwXqXwXwXyXuXqXwX8X4X4X4X4X6X9XyXwX6XqXpXcX  sXrXuX8X6X9X8X6X8XqXwX8XwXyXuXwXrXyX9X8X4X4X>XaXsXyXrXuXuXuXaX  cXaXyXyXrX",
"qXyXyX8X6XyXsXuXsXsXwXrXaXyXqXwXwX9XqXuXyX9X8XrXcX  yXyXwXuX9X6XqX8X6X8X9X9XwXuXuXaXqX8X8X6X6X4X4X4XyXaXuXuXuXpXuXpXaXsXpXyXyXwX",
"wXyXyXwXwXyXsXsXcXaXuXsXsXpXpXuXwX6XyXsXcXwX8XuXcXsXuXuXuXsX6X4X8X4X8XyXyXwXyXsXsXyXwX8X4X4X6X8XyXrXyXuXpXaXsXsXcXcXcXcXaXyXqXwX",
"pXyXaXrXuX        sX    aXsXpXwX6XqXsXsXaXyX8XsXsXcXcXcX  sX8X6X8XwXuXpXsXsXsXsX  rXyXwX4X4X8XyXsXsXsXsXuXyXyXuXaXuXaXuXyXpXyXyX",
"  cXpXwXyX          sXsXpXuX8X8XyXaX    aXyXrXsXuXpXsXcXsXsX8XqXwXpXpXuXcXsXsXcXaXyXsXpXwXwXyXuXsXsXcXsXuXsXsXsXsXsXuXuXuXpXaX  ",
"    cXsXcX      sX  sXuXyXqX6XyXcX      cXsXuXuXrXyXuXsXpXpX8XyXsXcXcXsXcX  cXcXyXsXcXsXsXaXaXaXsXsXcXcXuXsXaXsXsXaXsXaXpXpX    ",
"  cX      sXsXsXsXsX        cX              sXsXsXpXuXyXuXaXuXpXsX        cXcXcXcXcXcX  cXcXsXcX  cX  sXyXuXuXaXsXwXsXaXsXcXwXuX",
"cX              cX                          cXpXsXsXuXaXaX  sXsX  sXcX            cX    cX        cXsXuXuXsXaXsXsXpXpXuXsXyXpX  ",
"          cX  cXcX                                                sXcX          cX    cXcXcX  sXuXwXqX9XuXyXrXrXyXyXuXsXpXuXyXsX",
"            cX                                              cXcXcXcX          cXcXaXpXuXyXyXuXuXwX4X6X9X9X9X8X6X8XqXrXyXuXpXyXyX",
"pX          cX  cXcX                          cXsXsXsXcXaXaXwXrXaXsXcXcXpXsXyXyXpXyXuXuXuXuXaXuX8X4X6X4X4X4X4X4X4X6X8XwXyXwXqXrX",
"uXaXcX    sXsXaXpXaXsX                      pXwX8X8XwXwX9X8X4X4X8XqXwXrX9X8X6X4X8XyXsXpXpXsXsXpXwX6X4X>X>X4X>X>X>X4X6XrXrXqXyXqX",
"uXaXcX  aXuXuXuXuXaXsXcXsXcX      cXsXsXcXyX8X6X4X4X6XqX9X8X8X6X4X4X4X6X6X6X6X6X6XyXuXaXpXsXsXsXuX8X4X>X>X4X>X>X>X4XqXuXwXyXqXyX",
"aXcX  cXyXuXuXpXuXaXsXsXaXsX    cXyXwXwXwX9X8XqXyXyXyXuXyXrXqX6X6X6X9X8X8X9X8XwXyX9XrXuXyXyXuXaXpX8X4X4X6X8X4X6X6X9XpXuXwX9XwXyX",
"    cXsXyXsXsXsXsXsXsXaXsXcX    yX8X8X6X6X8XqXyXsXsXpXyXwXwX8X8X8XwXwX8X8XwXyXaXuXwXyXwXyXpXsXsXpX6X4X>X8XqX6XqXwXyXsXpXwXqXwXuX",
"sXsXcXaXsXcXsXsXcXsXaXsXsXsX  wX6X6X6X8XqXuXyXyXwXyXrXyXwX6XqXwX8XqXyXwXrXyXuXcXsXuXuXyXuXaXsXsXuX9X4X6X6X4X4X4X8XuXaXyXqXyXpXcX",
"sXaX  uXuXsXsXcXsXsXaXsXpXsXaX8X6X8X9XwXrXpXyX4X9XrXwX9X8X9XrXyX9X8X9XyXwXqXwXpXsXcXcXcXcX      pX6X6X6X8XwXwXqXwXuXyXwXrXyXyXsX",
"sXsXsXyXyXsXsXcXsXsXcXcXcX  uX6X9X8XqXwXyXuXyX8XwXwX8X8X8X9X9XrX8XqXyXyXyXrXqXuXsXcXcXcX  cX    aX9X6XwXyXuXrXyXyXwXqXwXyXyXuXsX",
"cXcXuXyXpXsXsXsXsXcXsXsX    9X6X6X4X8XyXyXwXwX6X9XqX8X8X8XqX8X9XrXwXuXyXwXqXwXsXcXyXuXsXsXcX    aXqX6XyXuXyXyXpXuXyXuXpXyXyXuXaX",
"  cXyXwXyX  cXcX  sXsXcXcXcX6X6X6X6X8XqX9X8X6X8X8X9XwX8X6X9X8XqXrXwXyXrXwXyXpXsXsXuXyXpXaXcXcXcXaXwXwXpXuXuXpXsXaXaXsXaXyXyXyXuX",
"sXsXuXwXwXsXsX    cXcXcXcXsX6XwX8X6X9X8X8X6X8XwXwXwXqX6X8XwX8XyXyXuXuXaXuXpXsXcXsXsXpXsXsXcXcXsXyXqXrXaXsXsXpXsXsXsXsXsXuXaXsXcX",
"uXsXsXuXuXpXsX  sXsXsXsX  sXwXrXwXrXyXrX8XqXqXaXuXrXrXqX9X9XqXaXpXuXuXpXpXsXsXcXuXuXuXaXsXaXuXrX6X6XyXsXcXcXcXcXcXcX  sXsXpXaXsX",
"uX  sXaXsXyXuXuXuXuXuXaX  cXpXpXaXsXsXuXyXuXuXsXaXaXpXuXyXyXuXaXsXuXpXaXsXcX  cXyXwXuXuXuXyXrX9XwXyXsX        cXpX  cXyXwXrXyXrX",
"cX  sXsXsXqXyXpXuXpXpXsXsXaXsXcXcXcXcXcXsXsXcXcXsXcXcXsXsXsXcXcXsXsXsXcXcXcXsXyXwXyXsXuXuXyXwXwXwXwXaXsXuXaXuXsXyXyXpXwX8X4XuXrX",
"qXyXsXuXuXuXsXsXsXcXcXsXsXsXyXwXyXyXpXaXpXuXpXyXuXpXuXaXuXwX6X4X4X4X4X6X6X6X4X>X4X4X4X>X4X4X4X>X>X4XqXwXyXyXuXaXaXwXqX6X4X4X>X>X",
"4X9XwXwXwXwXwXwXwXwXwXwXrXyXqXqXrXwX9X8X6X6X8XuXsXsXaXcXuX6X>X>X4X>X>X9X4X>X>X>X>X4X>X4X8X8X4X>X4X6XyXuXyXyXuXpXyXqX4X4X4X>X4X>X",
"4X4X6X8X4X4X4X4X4X4X4X4X4X4X4XwXwX6X4X4X>X>X4XyXuXuXaXpXpX6X4X4X4X4X4X6X>X4X4X4X6X>X4X4X8X6X>X4X6X9XsXsXsXcXcXcXuX9X4X4X4X>X>X>X",
">X8X6X4X4X4X4X4X4X6X8X6X4X4X4X8X8X8X4X4X>X>X4XuXsXaXsXsXsXqX4X6XqXwX6X6XwXrXwXqX8X6X6XwXwX4X4X4X9XyXcXsXuXyXpXcXyX4X4X4X4X6X4X4X",
"cXcXyX4X8X4X6X6X6XwXwX9X9XyX6X4X4X6X6X4X4X8XwXuXsXaXsXaXsX8X4XqXsXaXuXpXcXsXaXsXuXuXuXuXwX>X4X8XpXsXsXpXyXyXpXaXwX4X>X6X8XwXwX4X",
"rX9XpX6X4X8XwXyXuXuXuXyX8XwX6X9XqX8XqX6XqXpXsXuXaXaXpXaXsX4X4XyX    cX    sXrXaXcXcXcXaX4X4X6XwXsXsXyXpXsXsXsXsXyX8X4X6XqXyXyXqX",
"uXyXyX8X9XaXsXsXsXpXaXsX9XwXyXuXaXpXuX8XyXcX  pXsXsXsXaXaX9X8XpX    sXcXuXuXyXsXcX    pX8X6X9XuXuXwX9XyXaXsXsXsXuX8X6X6XwXuXaXyX",
"cXaXwX8XyX  sXpXpXpXsXsXrXpXsXsXuXuXwX8XyXcX  sXcXsXsXsXsXuXpX  sXsXuXpXyXuXsX  cX    sXyXqXyXpXwX8XuXuXyXrXyXyXwX6X4XqXyXuXaXyX",
"uXwXrXyXuX  sXsXcX  aXuXuXsXyXuX9X6X8X9XrXcX  cX  cXsXcX  pXsX  pXyXsXsXaXsXsXcX    sXpX9X9XqXqXwXrXaXsXuXqX9XqX8X>X4XwX6XqXwX8X",
"      cXcXpXpXpXyXwXuXaXaXpXuXaX6XuX          uXyXyXrXuXsXaX  cX  cX          cXaXyX8X8X8X4X6XwXuXpXrXuXpXyXpXsXuXyXuX8XqX8X8XqX",
"sXsXcXsX  uXaXuXuXsXcXcXsXyXsXuXwXsX      sX  uXsXsXcXaXsXyXsXcX      sX  aXsXcXsXuXyXyXwX6XwXpXuXwXwXuXsXsXsXsXsXpXyX6XqXwXyXuX",
"  cXaXuXsXsXpXyXsX      sXyXaXpXyXsX  cXcX    uXsX      sXwXyXrX    aXsXcXyXaXsX  cXsXuXwXqXuXcXuXwXyXpXsXaXuXuXsXyX6XrXuXaXaXaX",
"    sXuXsX  aXuXcX      aXsXpXyXqXaXsXuXpXcXsXuXsX      cXwX8XwX  sXcX  aXrXaX      sXpXyXpXsXcXsXsXsX  cXsXsXsXcXyX8XsXsXcXsXsX",
"  cXcX      cX        sXaX  pXyXyXsXcXuXuXsXcXsXcX      cXqXwXyXsXsX    cXpX          cXcXcX              cX      sXaXsXcX  cXsX"
};
