/* XPM */
static char *e42c0a284aa04222c8c104e6bb0844bd[] = {
/* columns rows colors chars-per-pixel */
"64 64 256 2 ",
"   c black",
".  c #0000A8",
"X  c #00A800",
"o  c #00A8A8",
"O  c #A80000",
"+  c #A800A8",
"@  c #A85400",
"#  c gray66",
"$  c gray33",
"%  c #5454FC",
"&  c #54FC54",
"*  c #54FCFC",
"=  c #FC5454",
"-  c #FC54FC",
";  c #FCFC54",
":  c gray99",
">  c #ECECEC",
",  c gainsboro",
"<  c #D0D0D0",
"1  c #C0C0C0",
"2  c #B4B4B4",
"3  c gray66",
"4  c #989898",
"5  c gray55",
"6  c #7C7C7C",
"7  c gray44",
"8  c #646464",
"9  c gray33",
"0  c #484848",
"q  c gray22",
"w  c #2C2C2C",
"e  c #202020",
"r  c #FC0000",
"t  c #EC0000",
"y  c #E00000",
"u  c #D40000",
"i  c #C80000",
"p  c #BC0000",
"a  c #B00000",
"s  c #A40000",
"d  c #980000",
"f  c #880000",
"g  c #7C0000",
"h  c #700000",
"j  c #640000",
"k  c #580000",
"l  c #4C0000",
"z  c #400000",
"x  c #FCD8D8",
"c  c #FCB8B8",
"v  c #FC9C9C",
"b  c #FC7C7C",
"n  c #FC5C5C",
"m  c #FC4040",
"M  c #FC2020",
"N  c #FC0000",
"B  c #FCA85C",
"V  c #FC9840",
"C  c #FC8820",
"Z  c #FC7800",
"A  c #E46C00",
"S  c #CC6000",
"D  c #B45400",
"F  c #9C4C00",
"G  c #FCFCD8",
"H  c #FCFCB8",
"J  c #FCFC9C",
"K  c #FCFC7C",
"L  c #FCF85C",
"P  c #FCF440",
"I  c #FCF420",
"U  c #FCF400",
"Y  c #E4D800",
"T  c #CCC400",
"R  c #B4AC00",
"E  c #9C9C00",
"W  c #848400",
"Q  c #706C00",
"!  c #585400",
"~  c #404000",
"^  c #D0FC5C",
"/  c #C4FC40",
"(  c #B4FC20",
")  c #A0FC00",
"_  c #90E400",
"`  c #80CC00",
"'  c #74B400",
"]  c #609C00",
"[  c #D8FCD8",
"{  c #BCFCB8",
"}  c #9CFC9C",
"|  c #80FC7C",
" . c #60FC5C",
".. c #40FC40",
"X. c #20FC20",
"o. c #00FC00",
"O. c #00FC00",
"+. c #00EC00",
"@. c #00E000",
"#. c #00D400",
"$. c #04C800",
"%. c #04BC00",
"&. c #04B000",
"*. c #04A400",
"=. c #049800",
"-. c #048800",
";. c #047C00",
":. c #047000",
">. c #046400",
",. c #045800",
"<. c #044C00",
"1. c #044000",
"2. c #D8FCFC",
"3. c #B8FCFC",
"4. c #9CFCFC",
"5. c #7CFCF8",
"6. c #5CFCFC",
"7. c #40FCFC",
"8. c #20FCFC",
"9. c #00FCFC",
"0. c #00E4E4",
"q. c #00CCCC",
"w. c #00B4B4",
"e. c #009C9C",
"r. c #008484",
"t. c #007070",
"y. c #005858",
"u. c #004040",
"i. c #5CBCFC",
"p. c #40B0FC",
"a. c #20A8FC",
"s. c #009CFC",
"d. c #008CE4",
"f. c #007CCC",
"g. c #006CB4",
"h. c #005C9C",
"j. c #D8D8FC",
"k. c #B8BCFC",
"l. c #9C9CFC",
"z. c #7C80FC",
"x. c #5C60FC",
"c. c #4040FC",
"v. c #2024FC",
"b. c #0004FC",
"n. c #0000FC",
"m. c #0000EC",
"M. c #0000E0",
"N. c #0000D4",
"B. c #0000C8",
"V. c #0000BC",
"C. c #0000B0",
"Z. c #0000A4",
"A. c #000098",
"S. c #000088",
"D. c #00007C",
"F. c #000070",
"G. c #000064",
"H. c #000058",
"J. c #00004C",
"K. c #000040",
"L. c #282828",
"P. c #FCE034",
"I. c #FCD424",
"U. c #FCCC18",
"Y. c #FCC008",
"T. c #FCB400",
"R. c #B420FC",
"E. c #A800FC",
"W. c #9800E4",
"Q. c #8000CC",
"!. c #7400B4",
"~. c #60009C",
"^. c #500084",
"/. c #440070",
"(. c #340058",
"). c #280040",
"_. c #FCD8FC",
"`. c #FCB8FC",
"'. c #FC9CFC",
"]. c #FC7CFC",
"[. c #FC5CFC",
"{. c #FC40FC",
"}. c #FC20FC",
"|. c #FC00FC",
" X c #E000E4",
".X c #C800CC",
"XX c #B400B4",
"oX c #9C009C",
"OX c #840084",
"+X c #6C0070",
"@X c #580058",
"#X c #400040",
"$X c #FCE8DC",
"%X c #FCE0D0",
"&X c #FCD8C4",
"*X c #FCD4BC",
"=X c #FCCCB0",
"-X c #FCC4A4",
";X c #FCBC9C",
":X c #FCB890",
">X c #FCB080",
",X c #FCA470",
"<X c #FC9C60",
"1X c #F0945C",
"2X c #E88C58",
"3X c #DC8854",
"4X c #D08050",
"5X c #C87C4C",
"6X c #BC7848",
"7X c #B47044",
"8X c #A86840",
"9X c #A0643C",
"0X c #9C6038",
"qX c #905C34",
"wX c #885830",
"eX c #80502C",
"rX c #744C28",
"tX c #6C4824",
"yX c #5C4020",
"uX c #543C1C",
"iX c #483818",
"pX c #403018",
"aX c #382C14",
"sX c #28200C",
"dX c #600064",
"fX c #006464",
"gX c #006060",
"hX c #00001C",
"jX c #00002C",
"kX c #302410",
"lX c #480048",
"zX c #500050",
"xX c #000034",
"cX c gray11",
"vX c #4C4C4C",
"bX c gray36",
"nX c gray25",
"mX c gray19",
"MX c #343434",
"NX c #D8F4F4",
"BX c #B8E8E8",
"VX c #9CDCDC",
"CX c #74C8C8",
"ZX c #48C0C0",
"AX c #20B4B4",
"SX c #20B0B0",
"DX c #00A4A4",
"FX c #009898",
"GX c #008C8C",
"HX c #008484",
"JX c #007C7C",
"KX c #007878",
"LX c #007474",
"PX c #007070",
"IX c #006C6C",
"UX c #980088",
/* pixels */
"q L.L.nXq nXnXq nXnXnXvXnXnX$ vXnXvX$ $ bX7 5 8 6 7 8 6 8 7 5 7 8 8 8 7 $ $ 6 7 $ L.q vX8 8 8 8 8 bXvX7 vXnX7 8 $ 8 $ q bXnXq e ",
"mXnXnXq q L.q nXvXnXnXvXnX$ nXvXnXnXq $ $ 6 6 8 6 8 7 8 $ 4 7 6 7 8 $ $ 8 7 7 8 $ L.vX$ 7 8 8 $ $ $ bXvX$ 7 $ bXvXvXbXvXq nXmXe ",
"L.L.w nXvXL.q nXvXnX$ vX$ bXvXnXnXnXq bX8 7 5 7 7 6 7 8 bX6 7 8 8 $ 6 $ $ $ 8 8 vXL.$ vXbX8 8 $ vXvX$ nXvX$ vXbXvX$ $ vXq vXL.e ",
"e L.L.q q q vXq nXnXnXnXnX$ vXnXq q L.nX8 8 7 7 7 8 7 8 bXbX8 $ nXvX8 $ $ $ $ $ q L.vXvX$ vXnXnXnXnXnXvXnXnXnXnX$ 8 $ $ q q L.e ",
"w L.w mXL.nXbXnXvX$ bXvXvX$ $ vXnXq q vX$ 8 6 8 8 $ $ vXbXnXnXq q q vX$ vXvX$ vXvXe q nXnXq q nXvX$ $ $ $ nXvX$ $ $ vXvXnXnXL.e ",
"e e e cXw nXnXnXnXnXnXnXnX$ vXq $ bXvXq vXbX$ nXvXvX$ vXnXnXq q q vXvXvXvXq L.mXnXL.q $ nXnXnXnX$ 8 8 $ bXvX$ vX$ $ bXvXnXnXmXe ",
"L.q q cXe q q nXvX$ $ bX7 6 7 6 7 8 7 $ 8 6 7 q vX$ vXnXq q q q mXq q q q mXL.L.L.q q bX$ vXvX$ bX8 8 $ vXvXnXvXvXvXnXvXvX$ q q ",
"nXvXnXe q 8 8 8 7 7 7 7 7 7 8 $ $ 8 $ vX8 6 7 nXmXnXvXL.mXq q q L.q q q q L.L.L.L.L.L.vXvX$ bX8 $ vX$ nXvXvXvXnXnXq q vXvX$ vXnX",
"nXnXq cX4 7 7 6 7 8 bXbX8 8 8 bX7 7 8 7 6 7 7 nXq q q q L.L.L.L.L.L.q q q q L.L.L.L.L.nXvX$ $ bX$ vXnXvXvX$ $ vXnXq nXq nXnXnXnX",
"q nXnXe 6 7 5 7 8 6 6 bX7 5 6 7 7 7 8 6 7 8 8 vXq nXnXmXq q L.L.mXL.L.q q q q q L.L.w vXnXvXnXnXnXnX$ bXbX$ vXvXq nXnXnXvXnXq q ",
"q q nXe 7 7 6 8 8 8 $ 8 bX7 8 8 8 bX8 $ $ $ $ nXL.q q w q q L.L.L.L.L.q nXnXq q q w e nXq q q q q $ $ bX$ vXvXnXnXq q q vXnXnXnX",
"q q q e 8 7 vXnX6 8 nX$ $ $ $ $ $ $ $ vXnXnXnXnXL.L.q q q q L.q mXq mXq vXvXq nXq L.e nXq nXnXq $ vX$ $ $ vXnXnXnXnXnXnXnXnXvXq ",
"L.vXvXe $ 8 $ cX$ $ $ vX$ $ 8 8 8 8 vXvX$ $ vXq q q q nXq q vXq nXnXnXq $ vX$ q q e e L.q vXnXvXbXvX$ $ $ bXnXnXvXnXnXq nXnXnXq ",
"vXvXvXe $ bX8 w nX8 $ $ $ 8 $ 8 8 vXvXbX$ bX$ q vXvXvXq q vXvXvXvXvXvX$ 8 $ 8 $ vXe e L.q q nXvXnX$ nXq nXvX$ $ $ nXq L.q nXvXq ",
"q q q cX8 $ $ L.L.$ $ vX$ $ 8 $ $ vX$ 8 6 8 $ nX$ $ vX$ nXvXvXq q nXbX6 8 $ vXvXq w e L.q nXvX$ vXvXvXq nX$ bXvXvXnXq q nXvXvXnX",
"q q q w $ $ $ cXe $ nX8 $ $ 8 8 vX$ $ $ 8 vX$ bXvXbX8 vXvXvX$ 8 vXnXvXbX8 8 $ $ nXe e w q q $ $ vXbXq nX$ $ $ nXnXq nX$ bXvX$ nX",
"L.q q e nX$ $ e cX8 bX$ $ $ $ $ vXvXvX7 8 $ $ vX$ bXvX$ $ $ 8 8 bX$ 7 8 $ bX$ $ $ L.e e nXq q $ vXnXq vX$ vX$ q q $ vX$ vX$ bXnX",
"L.q w cXvXvX$ e cXbX8 $ vX$ vXvXvXvXvX8 7 $ $ vXvX8 $ $ bX7 8 $ $ $ 7 8 $ $ $ bX8 q L.w nXq q q nXq nXnXq vXnXnXnX$ vX$ $ bXvXq ",
"vXq e e nXvXvXe q nX$ vXvX$ vXvXvXvXvXvXvXvXnXq bXnXbX8 8 $ 8 8 7 8 8 8 8 8 8 8 8 nXL.L.vXq q q q q nXnXnXvXnXvXvXnXbXvX$ bXvXvX",
"q q e q nXnXL.cXL.vXvX$ q $ vXvXq $ $ vXnXq nXq 7 bXvXbX7 vXbX7 7 7 7 7 7 8 7 6 8 q w e nXnXq q q L.nXq vXnXvX$ vX$ bXnXvXvXnXnX",
"bXnXw e L.w e cXcX$ vXvXvXq vXnXvXvX$ $ vX$ q L.7 7 7 nX8 7 7 7 6 6 7 7 8 8 bXq L.w cXe vXvXq vXq w L.q q nXnXnXvX$ $ q vXnXnXL.",
"8 q w cXcXcXcXcXe L.vXnXnXnXvXvXvXq nX$ nXq w L.nX7 7 8 vX$ $ $ vXvXnXnXq q q q L.w e cXnXq q L.L.e L.nXL.q nXq q nX$ nX$ vXq w ",
"q L.w cXcXe cXcXe e w nXnXq q L.w e w w w e w e w w q w w L.w L.w w L.q q q q q L.L.q q L.w L.q L.e L.L.q L.q q q w L.nXq vXq e ",
"w w e w w e w e w w e w q L.q L.L.cXe L.L.L.w L.q L.L.L.q q q q q L.q nXq vXvXq mXq q bXvXq q nXq q L.q L.q q q q q q nXq vXvXnX",
"w q q L.q q q q q q L.q nXq vX$ nXq e q L.q mXnXq q q q q nXnXnXnXq q nXvXnXvXq L.L.mX$ 8 vXvXvXnXq q q mXq q vXnXnX$ vX$ $ vX$ ",
"q q $ vXvXvX$ vXbXnXvXbX$ vX$ $ $ $ L.q q L.vX$ q q q nXnXvXq nXq nXq L.nXq q q q L.vX$ $ $ 8 vXvXvXnXvXnXnXnX$ $ bX$ bX$ bX8 vX",
"vXvX8 8 $ $ 8 $ $ $ vX$ 8 vX8 8 $ $ q q L.q q vXvXnXq nXvXvX$ nXvXq q L.q mXq q q mX$ 7 8 8 8 $ vXnXnXvX$ vXbXvXvX$ $ $ 8 7 8 vX",
"nXbX8 8 $ 8 8 $ $ bX$ vX8 8 $ vX8 $ vXq q q q vXnXq nXq nXvXvXvXnXq q L.q q mXL.L.q vX8 $ bX$ vX$ q q vXvXbXvXvXnXvXbX$ bX8 bXvX",
"q vX$ 8 8 $ $ $ $ vXvX$ $ $ $ $ $ 8 vXmXq mXnXnXq q q q nXq nXq nXq L.L.mXnXq L.w L.q $ vXvX$ vXvXvX$ vX$ $ vXnX$ $ $ $ vX8 8 nX",
"L.nX$ 8 bX$ $ $ vXq q nX$ 8 8 $ vX$ vXq mXL.q q q nXq q nXvXq nXnXnXL.q nXnXq q e L.L.nXvX$ vX$ vXvX8 $ $ $ $ vX8 8 8 8 8 8 8 q ",
"L.vXbX8 $ 8 $ nXnXL.L.q vX$ 8 $ nXq nXq q mXnXvXq vXnXq vXvXnXnXnXvXnXnXvXnXq q q w q q $ vX$ vXbXvXvXvXvXq vXvX$ vX$ vXvXvXvXq ",
"L.nXbX$ 8 $ vX$ vXq L.q vXvX$ vXnXmXvXq L.mXnXvXq vXq q nXvX$ vXvXvXvX$ vXvXvXnXq mXnXnXvXvXvXvXnXvXvXvXq q q q vXnXnXvX$ vXnXvX",
"mXnXnXbX8 8 vXvX$ nXvX$ vX$ vX$ q q vXq L.L.nX$ bXvXvXq vXvXnXvXnXnXnXvX$ bXvXq q L.vXnXvXq vX$ vXvXvXvXq mXq q q $ vXnX$ vX$ vX",
"q bXvXvX$ $ vX$ vX$ $ vX$ $ nXvXvXnXvXL.L.L.q nXvXnXq q q q q nXq q $ nXnXq vXq L.L.q nXvXq vXnXq nXq q q q q nXnXq vXvXvXnXvXq ",
"w L.w L.L.q L.L.mXL.L.L.L.w w e w w e w L.w L.L.nXq q q L.q q nXnXnXvXq q q q q L.L.L.q q q q nXq q q q L.L.L.q q q q nXnXvXq e ",
"L.L.L.w w e e e w e cXe e e e e e cXe e e w q q vX$ vXvXvXvX$ vXvX$ $ $ vXvX$ nXL.L.w w L.L.L.q mXL.w L.L.L.w e L.q q vXvXq e e ",
"L.q q nXq vXq q q mXq q mXq q vXnXvX$ q w L.mXq vXq vXvXq q q q q q vX8 $ vX$ q L.w e L.L.L.q L.nXL.q vXvXq q L.q q q q q q e e ",
"w q vX$ vXvX$ vXvXvX$ nXvXq q nXvXvX$ q q q q nXmXvXq q q L.L.L.L.L.q q mXL.L.L.e w q vXvXq nXL.q nXvXvXvX$ nXq nXnXvXnXnXnXe e ",
"nXnXq nXvX$ vX$ vXnXq vXvX$ vXnXq nXvXq nXq q mXq L.L.L.q q L.L.L.L.w L.q L.e L.vXvXnXq q L.mXq q vXvXvXq vXnXq vXq vXvXvX$ e e ",
"L.q q vXvX$ $ vX$ $ vXnXnXvX$ $ nXq q vXq q q q q q q mXq q L.L.q L.L.L.mXq L.e mXq q q q q vXq nXnXvXq q vXnXvX$ nXvXvXnXq e L.",
"vXvXq vX$ $ vXvX$ 8 8 $ $ nXvXvXvX$ vXvXvXnXnXnXvXq mXnXq q q q q q q q L.q L.cXL.q q q mXnX$ nXvXq vXnXvXvXvXvXvXvXvXnXq q e e ",
"q nXnXvX8 vXvXvXvX6 8 7 8 8 vXvX$ vX8 vXnXvXbX$ $ vX$ vXvXvXnXnXvXvXq q nXq q e w q q vX$ vX$ vXvXnXvXvXvXvXvXvXnXvXvXq q L.e e ",
"L.bXvXvX$ vX$ vXq $ 8 8 8 8 8 $ $ vX8 vXvXnX$ nXvX$ vXvXnX$ vXnX$ vXnXvXvX$ $ e w q nXvXvXvXvX$ vXnXvXvXnXvX$ vXvX$ vXq L.L.e e ",
"e $ vX$ vXq vXvX$ nX8 6 7 $ $ $ $ vXvXvXvXbX$ $ $ vX$ bXvX8 vX$ vXnX$ nX$ $ $ mXw vXq nXnX$ vXvXnXnXnXvX$ vX$ vXvXvXnXq L.mXe e ",
"L.$ 8 q vXvX$ vXvXvXvX8 8 7 8 8 8 8 vXnXvX$ 8 $ 8 $ vX$ 8 8 bX$ bX8 8 $ bX8 $ vXL.vXvXq vXvXvXq nXvXnX$ bXvXq nXvXq q q mXL.e e ",
"q vX8 8 vX$ $ $ vX$ $ 7 8 8 8 6 6 7 $ q vXbX8 8 8 8 $ 8 8 8 bX8 7 $ 8 $ 8 8 8 $ q vXq q vX$ $ vXvXnXvXvXvXvXvXq q q q mXq L.e e ",
"q $ vX8 $ 8 $ $ $ 8 8 8 7 8 8 $ 7 8 8 8 8 $ bX$ 8 7 8 8 8 8 7 8 8 8 8 8 8 $ $ 8 $ vXvXq nXvXvXvXvXnXvXvXvX$ vXvXvXq q vXL.nXe e ",
"$ $ vXvX8 bX$ 8 8 7 7 7 8 7 8 $ $ vX$ 8 $ $ $ $ 8 7 7 8 8 8 8 7 8 7 8 8 7 $ 8 8 $ nXvXq vXvXq vXnXnXvXnXvXq vX$ vXnXL.q q q e e ",
"vX$ vXvXvX$ $ 8 7 7 6 7 6 7 6 7 $ $ vXvX$ vX$ bX8 7 7 7 7 8 8 8 7 7 7 8 7 7 8 8 8 vXvXq vXq nX$ vXq vXvXnXq nXnXnXnXvXL.q vXe e ",
"nXq nX$ 8 $ vX$ 8 $ 8 $ $ vX$ nXvXvXvX$ 8 vXvXvX8 7 7 7 7 8 8 8 7 8 8 8 8 7 $ vX$ $ vXnXvXnXvX$ $ vXnX$ nXnXnXnXnXvXnXmXq q e e ",
"vXnXvXnX$ vXvXvXvXq L.q q q q q $ q q vXbX$ nXnX$ 8 8 8 8 8 8 8 8 8 $ 8 $ 8 $ q vX$ q q nXnXnXnXvXnXnXvXvXnXnXvXnXnXq nXq q e e ",
"vXnXnXnXvXq q q q nXq mXq q q q q q nX$ $ $ q $ vXvX8 8 8 8 8 8 8 7 8 8 $ $ vXq $ vXq q nXq L.q q nXnXnXnXvXnXq vXnXnXvX$ vXe L.",
"nXvXnXnX$ 8 $ $ $ vXvXnXq q vXnXnX$ $ $ vXnXnXbXvXvX8 8 $ $ $ 8 8 8 8 $ $ vX$ vX8 nXq q q nXvXq q vXbXvXnXnXvXq vX$ bX8 8 $ mXL.",
"w bX8 8 $ $ $ 8 $ vXnXnXnXq vXnXvXnXnXq L.e w L.L.L.L.q nXq q nXq L.L.w w w L.w cXw q nXq q q q vXnXvXvXvXvXvXnX$ $ 8 8 7 8 L.L.",
"cXe q q nXq q q q w L.L.L.L.w w w w L.w e w L.nXe w L.e e e L.L.e e L.L.L.L.w e cXcXw q q vXvXnXnXq q q vX$ bX8 $ 8 vX$ $ $ e e ",
"cXcXcXe cXcXe cXcXe cXw e w w e e e cXcXq bX$ $ bX$ vXvX$ vXvX$ vXnXq q q q L.L.cXcXe w w w w e w e w L.q vXnXvXnXnXq L.e w L.q ",
"cXe L.w L.L.L.L.e L.L.L.L.L.L.L.L.L.q e vXvXq vX$ vXvXvXnXvXq vXq $ q q nXnXvXvXe w q q q mXq q L.mXq nXvXq q L.q q q e q q nXnX",
"e L.L.L.q L.q L.L.L.L.L.L.q L.L.L.L.L.w q q nXnXbXvXnXvXq vXq q vX$ vXq nXnXvX$ nXq vXq bX$ vXvXvXq nXvXnXnXq nXvXvXvXL.q vXq q ",
"L.w L.q L.L.L.L.L.L.L.L.q mXw L.L.L.q w vXvXnXvX$ $ vX$ vXvXvXq vXvXq q q nX$ $ vXnXq nX8 vXvX$ $ vXvXbX8 8 bX8 $ vX8 L.mXnXq q ",
"w L.L.L.L.L.L.L.w L.q L.L.L.L.L.L.L.L.e vXq $ vXq $ $ $ $ vXvXq nXbXvXvX$ vX$ $ nXq $ $ 7 8 8 8 $ 8 8 8 8 8 $ $ nX$ vXq q vXnXL.",
"L.w L.L.q L.L.L.L.L.L.L.mXL.L.L.mXq L.e q vXvXvX$ $ 8 $ $ vX$ 8 $ 8 8 8 8 vX8 7 vXq vX8 7 7 7 8 8 8 vX$ $ vXvX$ vXvXvXnXq nX$ L.",
"q q q q q nXvXq q mXvXvXq nXvXvXnXq q L.bX$ vX$ 8 7 6 6 6 8 7 8 $ bXvX$ bXvX$ bXnXq nX$ $ vX8 vX$ $ vX8 $ $ vXvXvXvX$ q q q vXe ",
"nXvXnXnXvXvX$ vXvXvXnXvXnXnXq vXvXvXvXq 5 $ vX8 $ bX8 8 8 8 7 8 bX8 $ 8 $ $ vXbXvXmXq nXnXnXq mXq nXvXvX$ $ $ 8 7 8 $ nXq bX$ e ",
"$ nXnXq nX$ bX$ q nXnXq q vXvX$ vXvXnXq 8 8 6 5 bX8 bX8 bX8 8 8 8 $ 8 7 $ 8 vX$ 7 L.L.L.mXL.L.q q vXvXnX$ 8 vX7 8 $ 8 nXvX8 7 w "
};
