/* XPM */
static char *wall20[] = {
/* columns rows colors chars-per-pixel */
"64 64 256 2 ",
"   c black",
".  c #1F170B",
"X  c #170F07",
"o  c #4B4B4B",
"O  c gray100",
"+  c #1B1B1B",
"@  c #131313",
"#  c #0B0B0B",
"$  c #070707",
"%  c #2F371F",
"&  c #232B0F",
"*  c #171F07",
"=  c #0F1700",
"-  c #4F3B2B",
";  c #473323",
":  c #3F2B1B",
">  c #FFB7B7",
",  c #F7ABAB",
"<  c #F3A3A3",
"1  c #EB9797",
"2  c #E78F8F",
"3  c #DF8787",
"4  c #DB7B7B",
"5  c #D37373",
"6  c #CB6B6B",
"7  c #C76363",
"8  c #BF5B5B",
"9  c #BB5757",
"0  c #B34F4F",
"q  c #AF4747",
"w  c #A73F3F",
"e  c #A33B3B",
"r  c #9B3333",
"t  c #972F2F",
"y  c #8F2B2B",
"u  c #8B2323",
"i  c #831F1F",
"p  c #7F1B1B",
"a  c #771717",
"s  c #731313",
"d  c #6B0F0F",
"f  c #670B0B",
"g  c #5F0707",
"h  c #5B0707",
"j  c #530707",
"k  c #4F0000",
"l  c #470000",
"z  c #430000",
"x  c #FFEBDF",
"c  c #FFE3D3",
"v  c #FFDBC7",
"b  c #FFD3BB",
"n  c #FFCFB3",
"m  c #FFC7A7",
"M  c #FFBF9B",
"N  c #FFBB93",
"B  c #FFB383",
"V  c #F7AB7B",
"C  c #EFA373",
"Z  c #E79B6B",
"A  c #DF9363",
"S  c #D78B5B",
"D  c #CF8353",
"F  c #CB7F4F",
"G  c #BF7B4B",
"H  c #B37347",
"J  c #AB6F43",
"K  c #A36B3F",
"L  c #9B633B",
"P  c #8F5F37",
"I  c #875733",
"U  c #7F532F",
"Y  c #774F2B",
"T  c #6B4727",
"R  c #5F4323",
"E  c #533F1F",
"W  c #4B371B",
"Q  c #3F2F17",
"!  c #332B13",
"~  c #2B230F",
"^  c #EFEFEF",
"/  c #E7E7E7",
"(  c #DFDFDF",
")  c gray86",
"_  c LightGray",
"`  c #CBCBCB",
"'  c gray78",
"]  c gray75",
"[  c #B7B7B7",
"{  c gray70",
"}  c gray67",
"|  c #A7A7A7",
" . c #9F9F9F",
".. c #979797",
"X. c #939393",
"o. c #8B8B8B",
"O. c #838383",
"+. c gray50",
"@. c #777777",
"#. c #6F6F6F",
"$. c gray42",
"%. c gray39",
"&. c #5B5B5B",
"*. c gray34",
"=. c gray31",
"-. c gray28",
";. c #434343",
":. c gray23",
">. c #373737",
",. c #2F2F2F",
"<. c #272727",
"1. c #232323",
"2. c #77FF6F",
"3. c #6FEF67",
"4. c #67DF5F",
"5. c #5FCF57",
"6. c #5BBF4F",
"7. c #53AF47",
"8. c #4B9F3F",
"9. c #439337",
"0. c #3F832F",
"q. c #37732B",
"w. c #2F6323",
"e. c #27531B",
"r. c #1F4317",
"t. c #17330F",
"y. c #13230B",
"u. c #0B1707",
"i. c #BFA78F",
"p. c #B79F87",
"a. c #AF977F",
"s. c #A78F77",
"d. c #9F876F",
"f. c #9B7F6B",
"g. c #937B63",
"h. c #8B735B",
"j. c #836B57",
"k. c #7B634F",
"l. c #775F4B",
"z. c #6F5743",
"x. c #67533F",
"c. c #5F4B37",
"v. c #574333",
"b. c #533F2F",
"n. c #9F8363",
"m. c #8F7753",
"M. c #836B4B",
"N. c #775F3F",
"B. c #675333",
"V. c #5B472B",
"C. c #4F3B23",
"Z. c #43331B",
"A. c #7B7F63",
"S. c #6F7357",
"D. c #676B4F",
"F. c #5B6347",
"G. c #53573B",
"H. c #474F33",
"J. c #3F472B",
"K. c #373F27",
"L. c #FFFF73",
"P. c #EBDB57",
"I. c #D7BB43",
"U. c #C39B2F",
"Y. c #AF7B1F",
"T. c #9B5B13",
"R. c #874307",
"E. c #732B00",
"W. c gray100",
"Q. c #FFDBDB",
"!. c #FFBBBB",
"~. c #FF9B9B",
"^. c #FF7B7B",
"/. c #FF5F5F",
"(. c #FF3F3F",
"). c #FF1F1F",
"_. c red",
"`. c #EF0000",
"'. c #E30000",
"]. c #D70000",
"[. c #CB0000",
"{. c #BF0000",
"}. c #B30000",
"|. c #A70000",
" X c #9B0000",
".X c #8B0000",
"XX c #7F0000",
"oX c #730000",
"OX c #670000",
"+X c #5B0000",
"@X c #4F0000",
"#X c #430000",
"$X c #E7E7FF",
"%X c #C7C7FF",
"&X c #ABABFF",
"*X c #8F8FFF",
"=X c #7373FF",
"-X c #5353FF",
";X c #3737FF",
":X c #1B1BFF",
">X c blue",
",X c #0000E3",
"<X c #0000CB",
"1X c #0000B3",
"2X c #00009B",
"3X c #000083",
"4X c #00006B",
"5X c #000053",
"6X c gray100",
"7X c #FFEBDB",
"8X c #FFD7BB",
"9X c #FFC79B",
"0X c #FFB37B",
"qX c #FFA35B",
"wX c #FF8F3B",
"eX c #FF7F1B",
"rX c #F37317",
"tX c #EB6F0F",
"yX c #DF670F",
"uX c #D75F0B",
"iX c #CB5707",
"pX c #C34F00",
"aX c #B74700",
"sX c #AF4300",
"dX c gray100",
"fX c #FFFFD7",
"gX c #FFFFB3",
"hX c #FFFF8F",
"jX c #FFFF6B",
"kX c #FFFF47",
"lX c #FFFF23",
"zX c yellow",
"xX c #A73F00",
"cX c #9F3700",
"vX c #932F00",
"bX c #872300",
"nX c #4F3B27",
"mX c #432F1B",
"MX c #372313",
"NX c #2F1B0B",
"BX c #000053",
"VX c #000047",
"CX c #00003B",
"ZX c #00002F",
"AX c #000023",
"SX c #000017",
"DX c #00000B",
"FX c cyan",
"GX c #FF9F43",
"HX c #FFE74B",
"JX c #FF7BFF",
"KX c magenta",
"LX c #CF00CF",
"PX c #9F009B",
"IX c #6F006B",
"UX c #A76B6B",
/* pixels */
"Q Q Q Q Q Q Q Q Q Q Q Q Q Q Q Q Q Q Q Q Q Q Q Q Q Q Q Q Q Q Q Q Q Q Q Q Q Q Q Q Q Q Q Q Q Q Q Q Q Q Q Q Q Q Q Q Q Q Q Q Q Q Q Q ",
"T T T T T T T T T T T T T T T T T T T T T T T T T T T T T T T T T T T T T T T T T T T T T T T T T T T T T T T T T T T T T T T T ",
"P P P P P P P P P P P P P P P P P P P P P P P P P P P P P P P P P P P P P P P P P P P P P P P P P P P P P P P P P P P P P P P P ",
"E E E E E E E ! E ~ ! E E E E E E E E E E E E E E ! E ~ ! E E E E ! E ~ ! E E E E E E ! E ~ ! E E E E E E E E E E E ! E ~ ! E E ",
"W W T Y Y Y Y E P ~ E P R W W W W Y Y W T W T W W E P ~ E P Y W Y E P ~ E P R W W W R E P ~ E P W Y W W Y W Y W Y Y E P ~ E P T ",
"W W T Y Y Y R E P ~ E P T W W W E Y Y W T W T W W E P ~ E P Y W Y E P ~ E P Y R W R Y E P ~ E P W Y W W Y W Y W Y Y E P ~ E P T ",
"W W R Y Y U.U.U.U.U.U.U.U.U.U.U.U.U.U.U.U.U.U.U.U.U.U.U.U.U.U.U.U.U.U.U.U.U.U.U.U.U.U.U.U.U.U.U.U.U.U.U.U.U.U.U.U.U.Y.aX~ E P T ",
"E W E T Y U.eXeXeXeXeXeXeXeXeXeXeXeXeXeXeXeXeXeXeXeXeXtXtXtXtXtXtXtXtXtXtXtXtXtXtXtXtXtXtXtXyXyXyXyXyXyXyXyXyXyXyXaXaXE ~ E P T ",
"T W W R Y U.eXW W W W W W W W W W W W W W W W W W W W W W W W W W W W W W W W W W W W W R R R R R R R R R R R R R Y.aXE ~ E P E ",
"T W E W R U.eXW *.*.*.*.*.*.*.*.*.*.*.*.*.*.*.*.*.*.*.*.*.*.%.%.%.%.%.%.%.%.%.%.%.%.%.%.%.%.%.%.%.#.#.#.#.#.#.#.#.U.aXE ~ E P E ",
"Y E W W E U.eXW *.................................................................................................U.aXE ~ E P E ",
"Y E W W W U.eXW *.....................................+.%.-.-.-.-.-.-.-.+.o.......................................U.aXE ~ E P W ",
"T Y W W W U.eXW *...................................*.-.-.1.1.1.1.1.1.1.1.1.-.-.+.................................U.aXE ~ E P W ",
"T Y E W W U.eXW *.................................*.-.1.1.>.>.*.>.>.>.>.>.1.1.1.-.................................U.aXE ~ E P W ",
"R Y Y W E U.eXW *...............................S F #.>.>.>.*.*.o.+.*.>.-.*.>.>.1.1...............................U.aXE ~ E P W ",
"E Y Y Y E U.eXW *...............................qXB B B #.F G #.+.o.%.,.%.#.%.>.,.1.-.............................U.aXE ~ E P E ",
"W T Y Y R U.eXW *.............................S B N N M B #.D G *.*.>.,.-.*.-.-.,.1.1.%...........................U.aXE ~ E P E ",
"W T Y Y Y U.eXW *.............................qXB N N m B #.D >.>.>.>.,.>.>.>.>.,.1.1.-...........................U.aXE ~ E P E ",
"W R T Y Y U.eXW *...........................qXB B N m B B B A >.>.>.>.,.>.>.>.>.,.1.1.,...........................U.aXE ~ E P T ",
"W E T Y Y U.eXW *...........................F K G C m B B B B H L L I U >.>.>.,.1.1.1.,...........................U.aXE ~ E P T ",
"W W R Y Y U.eXW %.............................! ! I G m B B N C A K K K K U >.1.1.1.,.,...........................U.aXE ~ E P T ",
"W W E Y Y U.eXW %...........................N F -.G C A B m C A A S A A K P R 1.1.1.,.-...........................U.aXE ~ E P T ",
"E W E R E U.eXW %.........................N b B S C B B B C A A A qXR K A R R 1.1.,.-.#...........................U.aXQ ~ E P T ",
"E W W E W U.eXW %.......................m b m C qXS N B C A A A S C D U C R R 1.1.,.#.............................U.aXQ ~ E P T ",
"E W W W W U.tXW %.......................A G G G F qXS qXqXqXA S S D K A G R R 1.,.-...............................U.aXQ ~ E P R ",
"T W W W W U.tXW %...........................1.R C S C qXqXA A S F qXC D Y R R 1.,.#...............................U.aXQ ~ E P E ",
"T W W W W U.tXW %...........................R L B C A C A A F G K D I Y Y Y R R -.................................U.aXQ ~ E P E ",
"T E W W W U.tXW %...........................N qXqXB C A A F K K L G S P P Y R R #.................................U.aXQ ~ E P W ",
"R E W W W U.tXW %...........................D C A B C qXA F K L L H C S G I R R ..................................U.aXQ ~ E P W ",
"E T W W W U.tXW %...........................C N C S qXS G L P L H C C C A G K Y Y ................................zXaXQ ~ E P W ",
"E T E W W U.tXW %...........................A C S G K L P P L H S C C G G P U Y Y +.o.............................zXaXQ ~ E P W ",
"W R E W T U.tXW %.................................L I I I L H S C G G P P P U U E Y Y #.o.........................zXaXQ ~ E P W ",
"W E T E T U.tXW %.....................................H L H H C G P P L P I Y E U U Y Y Y #.o.....................zXaXQ ~ E P W ",
"W E T E T U.tXW %.................................o.D H H D C P P L L L Y E U L L L P P U I Y #.o.................zXaXQ ~ E P W ",
"W W R T R U.tXW %.............................o.o.D G D D H L L H H Y E U L H H H H H H H L L I Y #...............zXaXQ ~ E P E ",
"W W E R E U.tXW %...........................o.#.D D G D F L H H I E U L H H H H H H H H H H H L I Y +.............zXaXQ ~ E P E ",
"W W W E W U.tXW %.........................o.#.Y D L D D F F H Y E L H H H H K L U L L H H H H H L U Y +...........zXaXQ ~ E P R ",
"W W W W W U.tXW %.........................#.U Y D L D D F H Y Y L H H H H K L U U L L L L I I I I I U Y ..........zXaXQ ~ E P T ",
"W W W W W U.tXW %.......................o.U U Y D U L D H Y Y H H H H H H L P Y U L L I L L L I I I I Y ..........zXaXQ ~ E P T ",
"E W W W W U.tXW %.......................#.P P Y L Y L Y E L H H H H H H K P U R R H H H H H L L I U U R ..........zXaXQ ~ E P T ",
"E W W W W U.tXW %.......................L P P Y U Y L L P H H H H H H H L U R R H H D H H H L H L Y Y W ..........zXaXQ ~ E P E ",
"T E W W W U.tXW %.....................o.L P P R Y I L L H H H H H H H K K U R H H D H H D L P H L Y R W ..........zXaXQ ~ E P E ",
"T E W W W U.tXW %.....................#.L P P Y Y L L G G F F H H H H L U R R H D H H D H L P H I Y R W ..........zXaXQ ~ E P W ",
"T R E W E U.tXW %.....................L L P P Y I L G G F F G G G Y L I R R L L H H H D L P L H I Y R W ..........zXaXQ ~ E P W ",
"T T E E E U.tXR %...................o.L L P Y Y L L G G F G G G Y L I I R ..) ) L D D H L P H H U R W *...........zXaXQ ~ E P W ",
"R T R E R U.tXR %...................#.L P P P Y L L P Y W W G G Y I R R ..,.,.*.) ].D Y L P H H Y R W #...........zXaXQ ~ E P W ",
"E T T R T U.tXR %.................o.L L P P Y I L H G G W W Y Y I R ..,.) ,._ ) ) ) ].Y P L H H Y R W +...........zXaXQ ~ E P W ",
"E T T R T U.yXR #.................#.K K K P Y L L G G F U K I I R XX..*.,.,.,.,.*.] |. X XP H H Y W R ............zXaXQ ~ E P W ",
"W T Y Y Y U.yXR #.................L L K K Y Y L H G G F P K I I XX|._.) ) ) ,.) ,...|. X.X.XP I Y W R ............zXaXQ ~ E P W ",
"W R Y Y Y U.yXR #.................H K P P Y U L H G G G K I R L  X X]...,.,.*.) ..+. X.X.XXXoXY W R R ............zXaXQ ~ E P W ",
"W E T Y Y U.yXR #.................H P K P L P L H G G G I R A G F U E ]...] ] ..+. X.X.XXXoXOXY W R R ............zXaXQ ~ E P W ",
"W E T Y Y U.yXR #...............S F H P Y H L L I I I G A F L A F F U E ].].|. X X.X.XXXoXOXOXk R R Y ............zXaXQ ~ E P E ",
"W W R Y T U.yXR #...............S D F H H H L L L L L A A A L L A G H H E E  X X.X.XXXoXOXOXk R R Y Y ............zXaXQ ~ E P E ",
"W W E T T U.yXR #.................S D D S S L L L F F A A F A G A A H L L E E .X.XXXoXOXOXk R R R Y K ............zXaXQ ~ E P R ",
"W W E T R U.yXR #...................S S ..S S H H G A A G G F A A A F L L Y E .XXXoXOXOXk R R I I K G ............zXaXQ ~ E P R ",
"W W W R R U.yXR #.............................F D D D D G K L L F F F L I T E E oXOXk R R R I K K G ..............zXaXQ ~ E P T ",
"W W W E E U.yXR #...............................A A D D D D D D D D D D G I I 1.XX1.Y I K K G ....................zXaXQ ~ E P T ",
"E W W W W U.yXR #.................................................................................................zXaXQ ~ E P Y ",
"E W W W W U.yXyXU.U.U.U.U.U.U.U.U.U.U.U.U.U.U.U.U.U.U.U.U.U.U.U.zXzXzXzXzXzXzXzXzXzXzXzXzXzXzXzXzXzXzXzXzXzXzXzXzXzXaXQ ~ E P Y ",
"R W W W W U.aXaXaXaXaXaXaXaXaXaXaXaXaXaXaXaXaXaXaXaXaXaXaXaXaXaXaXaXaXaXaXaXaXaXaXaXaXaXaXaXaXaXaXaXaXaXaXaXaXaXaXaXaXQ ~ E P Y ",
"R E W W W xXE E E E E E Q Q Q Q Q Q Q Q Q Q Q Q Q Q Q Q Q Q Q Q Q Q Q Q Q Q Q ! ! ! ! Q Q Q Q Q Q Q Q Q Q Q Q Q Q Q Q Q ~ E P Y ",
"T E W W W E T E E ~ ~ E ! ! ! Q W Q ! ! ! ! R R W E E ~ ~ E R R R ! ! ~ ~ E ! ! ! ! ! W W ~ ~ W W W W W ! ! ! ! ! W W ~ ~ E P Y ",
"T R W W W E T E P ~ E P W W W W R W W W W T Y Y R E P ~ E P T R W E P ~ E P W W W W W E P ~ E P R W Y R W W W W W W E P ~ E P Y ",
"R R R R R R R E P ~ E P R W W W W W W W R R R R R E P ~ E P R W W E P ~ E P R W W W R E P ~ E P R W R R W W W W W W E P ~ E P R "
};
